<?xml version="1.0" encoding="utf-8"?>
<!-- Generator: Adobe Illustrator 24.0.2, SVG Export Plug-In . SVG Version: 6.00 Build 0)  -->
<svg version="1.1" id="Layer_1" xmlns="http://www.w3.org/2000/svg" xmlns:xlink="http://www.w3.org/1999/xlink" x="0px" y="0px"
	 viewBox="0 0 485 485" style="enable-background:new 0 0 485 485;" xml:space="preserve">
<style type="text/css">
	.st0{fill:#DDDDDD;}
</style>
<g>
	<path class="st0" d="M90.6,236.9l72.6,27.1l28.1,90.4c1.8,5.8,8.9,7.9,13.6,4.1l40.5-33c4.2-3.5,10.3-3.6,14.7-0.4l73,53
		c5,3.6,12.1,0.9,13.4-5.2l53.5-257.1c1.4-6.6-5.1-12.2-11.5-9.7L90.5,220.9C83.1,223.7,83.2,234.1,90.6,236.9z M186.7,249.5
		l141.9-87.4c2.5-1.6,5.2,1.9,3,3.9L214.5,274.9c-4.1,3.8-6.8,9-7.5,14.5l-4,29.6c-0.5,3.9-6.1,4.3-7.2,0.5l-15.3-53.9
		C178.7,259.5,181.3,252.9,186.7,249.5z"/>
	<path class="st0" d="M0,0v485h485V0H0z M455,455H30V30h425V455z"/>
</g>
</svg>
